
<svg width="1440" height="1024" viewBox="0 0 1440 1024" fill="none" xmlns="http://www.w3.org/2000/svg">
  <path d="M-146 433.5L441 -153.5L1028 433.5L441 1020.5L-146 433.5Z" stroke="white" stroke-opacity="0.1" stroke-width="5"/>
  <path d="M-46 433.5L441 -53.5L928 433.5L441 920.5L-46 433.5Z" stroke="white" stroke-opacity="0.1" stroke-width="5"/>
  <path d="M54 433.5L441 46.5L828 433.5L441 820.5L54 433.5Z" stroke="white" stroke-opacity="0.1" stroke-width="5"/>
  <path d="M154 433.5L441 146.5L728 433.5L441 720.5L154 433.5Z" stroke="white" stroke-opacity="0.1" stroke-width="5"/>
  <path d="M254 433.5L441 246.5L628 433.5L441 620.5L254 433.5Z" stroke="white" stroke-opacity="0.1" stroke-width="5"/>
  <path d="M354 433.5L441 346.5L528 433.5L441 520.5L354 433.5Z" stroke="white" stroke-opacity="0.1" stroke-width="5"/>
  <path d="M812 433.5L1399 -153.5L1986 433.5L1399 1020.5L812 433.5Z" stroke="white" stroke-opacity="0.1" stroke-width="5"/>
  <path d="M912 433.5L1399 -53.5L1886 433.5L1399 920.5L912 433.5Z" stroke="white" stroke-opacity="0.1" stroke-width="5"/>
  <path d="M1012 433.5L1399 46.5L1786 433.5L1399 820.5L1012 433.5Z" stroke="white" stroke-opacity="0.1" stroke-width="5"/>
  <path d="M1112 433.5L1399 146.5L1686 433.5L1399 720.5L1112 433.5Z" stroke="white" stroke-opacity="0.1" stroke-width="5"/>
  <path d="M1212 433.5L1399 246.5L1586 433.5L1399 620.5L1212 433.5Z" stroke="white" stroke-opacity="0.1" stroke-width="5"/>
  <path d="M1312 433.5L1399 346.5L1486 433.5L1399 520.5L1312 433.5Z" stroke="white" stroke-opacity="0.1" stroke-width="5"/>
</svg>
